<?xml version="1.0" encoding="UTF-8" standalone="no"?>
<!-- Created with Inkscape (http://www.inkscape.org/) -->

<svg
   width="120"
   height="120"
   viewBox="0 0 120 120"
   version="1.1"
   id="svg1"
   inkscape:version="1.4.1 (93de688d07, 2025-03-30)"
   sodipodi:docname="launcher_icon.svg"
   xmlns:inkscape="http://www.inkscape.org/namespaces/inkscape"
   xmlns:sodipodi="http://sodipodi.sourceforge.net/DTD/sodipodi-0.dtd"
   xmlns="http://www.w3.org/2000/svg"
   xmlns:svg="http://www.w3.org/2000/svg">
  <sodipodi:namedview
     id="namedview1"
     pagecolor="#ffffff"
     bordercolor="#000000"
     borderopacity="0.25"
     inkscape:showpageshadow="2"
     inkscape:pageopacity="0.0"
     inkscape:pagecheckerboard="0"
     inkscape:deskcolor="#d1d1d1"
     inkscape:document-units="px"
     showgrid="true"
     inkscape:zoom="4"
     inkscape:cx="15.75"
     inkscape:cy="45.125"
     inkscape:window-width="1920"
     inkscape:window-height="1060"
     inkscape:window-x="0"
     inkscape:window-y="20"
     inkscape:window-maximized="0"
     inkscape:current-layer="layer5">
    <inkscape:grid
       id="grid4"
       units="px"
       originx="0"
       originy="0"
       spacingx="1"
       spacingy="1"
       empcolor="#0099e5"
       empopacity="0.30196078"
       color="#0099e5"
       opacity="0.14901961"
       empspacing="5"
       enabled="true"
       visible="true" />
  </sodipodi:namedview>
  <defs
     id="defs1" />
  <g
     inkscape:label="notebook"
     inkscape:groupmode="layer"
     id="layer1"
     style="display:inline;opacity:1">
    <rect
       style="fill:#cbcbcb;fill-opacity:1;stroke-width:0.921306;paint-order:markers fill stroke"
       id="rect9"
       width="72.00074"
       height="100.99815"
       x="14.005924"
       y="10.002418"
       inkscape:label="shadow"
       ry="1.0127815" />
    <rect
       style="fill:#f2f2f2;fill-opacity:1;stroke-width:0.999682;paint-order:markers fill stroke"
       id="rect15"
       width="71.004913"
       height="100.00439"
       x="14.006488"
       y="10.002053"
       inkscape:label="sheet"
       ry="1.006932" />
    <rect
       style="fill:#545454;fill-opacity:1;stroke-width:0.833922;paint-order:markers fill stroke"
       id="rect16"
       width="0.99624479"
       height="99.995964"
       x="14.0032"
       y="10.002263"
       inkscape:label="left" />
    <g
       inkscape:groupmode="layer"
       id="layer2"
       inkscape:label="items">
      <g
         inkscape:groupmode="layer"
         id="layer3"
         inkscape:label="item">
        <path
           style="opacity:1;fill:#333333;fill-opacity:1;stroke:none;stroke-width:1;stroke-dasharray:none;stroke-opacity:1;paint-order:stroke markers fill"
           id="path38"
           d="m 29.123533,86.564149 c 0.0179,0.07115 0.0324,0.143234 0.05368,0.213441 0.027,0.08904 0.159755,0.445923 0.186291,0.514981 0.118581,0.308607 0.247568,0.612491 0.37964,0.915491 0.04189,0.08477 0.0669,0.180247 0.125678,0.254318 0.11546,0.1455 0.240209,0.288613 0.391108,0.39692 0.50395,0.361707 1.188185,0.425078 1.78569,0.402751 0.222995,-0.0083 0.44384,-0.04681 0.66576,-0.07022 0.605207,-0.106698 1.186102,-0.307615 1.721148,-0.611008 0.527336,-0.299021 1.004966,-0.685289 1.486221,-1.050717 0.149962,-0.109043 0.297311,-0.221773 0.449887,-0.327128 0.126739,-0.08752 0.319109,-0.340082 0.503796,-0.202003 0.02817,0.02106 0.02928,0.06432 0.04888,0.09353 0.03391,0.0505 0.07546,0.09547 0.111095,0.144775 0.0561,0.07763 0.109354,0.157273 0.164031,0.235909 0.05327,0.09301 0.10924,0.184525 0.159814,0.279028 0.04816,0.08999 0.08832,0.184095 0.136254,0.274198 0.228869,0.430176 0.443444,0.71724 1.001786,0.741083 0.185668,0.0079 0.360511,-0.09041 0.540767,-0.135613 0.148357,-0.08584 0.299297,-0.167355 0.44507,-0.257509 0.139219,-0.0861 0.270978,-0.183832 0.409521,-0.271015 0.392535,-0.247017 0.809931,-0.485905 1.265329,-0.596536 0.12893,-0.03132 0.262935,-0.0358 0.394402,-0.05369 0.11632,0.01842 0.235819,0.02256 0.348959,0.05525 0.57171,0.165192 1.017726,0.605943 1.446756,0.99217 0.110819,0.09976 0.222946,0.198064 0.334419,0.297095 0.417058,0.266929 0.521009,0.383845 1.03604,0.487828 0.718792,0.145122 1.482702,0.009 2.176874,-0.184937 0.242119,-0.06763 0.476745,-0.159685 0.715118,-0.239528 0.527993,-0.192951 1.029884,-0.453323 1.564817,-0.628255 0.116993,-0.03826 0.646083,-0.186654 0.789316,-0.185187 0.08151,8.35e-4 0.154843,0.05102 0.232265,0.07653 0.374153,0.145423 0.710366,0.365474 1.039741,0.591075 0.196586,0.134649 0.451824,0.337801 0.672031,0.427031 0.2225,0.09016 0.458391,0.142888 0.687587,0.214331 0.660765,0.145247 1.332207,0.243141 2.007742,0.283241 0.174547,0.01036 0.349978,0.02803 0.524349,0.01503 0.538534,-0.04013 0.633827,-0.118477 1.133217,-0.309521 0.506325,-0.263424 0.992066,-0.567374 1.425167,-0.940906 0.354116,-0.305412 0.656148,-0.663301 0.976245,-1.002521 0.06826,-0.06548 0.136521,-0.130962 0.204782,-0.196443 0.0134,0.0066 0.05069,0.0092 0.04019,0.01977 -0.04062,0.04106 -0.113814,0.04326 -0.148353,0.08955 -0.01393,0.01868 0.02112,0.04245 0.03757,0.05895 0.04,0.04012 0.08834,0.07107 0.130171,0.109274 0.04827,0.0441 0.09329,0.09163 0.139931,0.137451 0.303379,0.355681 0.660233,0.658185 1.073445,0.879712 0.351953,0.188685 0.492254,0.219483 0.868644,0.348118 1.048625,0.261892 2.136725,0.229948 3.208975,0.224357 1.056854,-0.0119 2.111589,-0.08027 3.167837,-0.111132 0.737429,-0.01512 1.474428,-0.01806 2.209997,-0.07615 0.335682,-0.03981 0.672923,-0.03171 1.009711,-0.01686 0.889124,0.03839 0.94342,-1.219018 0.0543,-1.257411 v 0 c -0.387997,-0.01645 -0.776684,-0.0243 -1.163445,0.01962 -0.714697,0.05687 -1.430922,0.05656 -2.14741,0.07275 -1.046216,0.03072 -2.09094,0.09775 -3.137724,0.11061 -0.935161,0.0051 -1.883312,0.03668 -2.803472,-0.159532 -0.272713,-0.08823 -0.365655,-0.106595 -0.619536,-0.233401 -0.339795,-0.169717 -0.608881,-0.427917 -0.854651,-0.713332 -0.07934,-0.07382 -0.154487,-0.152432 -0.238028,-0.221468 -0.179087,-0.147992 -0.483813,-0.367671 -0.710405,-0.409704 -0.198487,-0.03682 -0.408626,-0.03813 -0.605587,0.0061 -0.265478,0.05965 -0.450643,0.279492 -0.63251,0.455555 -0.09287,0.0985 -0.186726,0.196074 -0.278599,0.295501 -0.229773,0.248667 -0.312162,0.362674 -0.565143,0.585284 -0.339154,0.298437 -0.722031,0.539125 -1.114788,0.759769 -0.207426,0.09215 -0.395256,0.198405 -0.626938,0.217832 -0.150266,0.0126 -0.301693,-0.0025 -0.452247,-0.01104 -0.594861,-0.03359 -1.186076,-0.118385 -1.769136,-0.239678 -0.13651,-0.03257 -0.277672,-0.04964 -0.409528,-0.0977 -0.176877,-0.06446 -0.462348,-0.289526 -0.600704,-0.383251 -0.478777,-0.32433 -0.968761,-0.627108 -1.532516,-0.783359 -0.224107,-0.02325 -0.447065,-0.07466 -0.672321,-0.06974 -0.162497,0.0035 -0.320399,0.05628 -0.478294,0.09485 -0.709536,0.173295 -1.366668,0.491414 -2.041344,0.76249 -0.198253,0.06841 -0.39343,0.146488 -0.594759,0.205233 -0.359831,0.104993 -0.754305,0.186523 -1.130176,0.21219 -0.212606,0.01452 -0.483117,0.0086 -0.689295,-0.07319 -0.09763,-0.03872 -0.182207,-0.104532 -0.273311,-0.156797 -0.395183,-0.350988 -0.792089,-0.746783 -1.23183,-1.038562 -0.402617,-0.267147 -0.782208,-0.467789 -1.262044,-0.562288 -0.220513,-0.04343 -0.448487,-0.03013 -0.67273,-0.04519 -0.203475,0.03619 -0.410676,0.05554 -0.610425,0.108565 -0.789157,0.209508 -1.469945,0.681668 -2.137172,1.131255 1.6e-5,0.152408 -0.01581,-0.0016 0.169988,0.211536 0.0076,0.0087 -0.02686,0.01673 -0.03391,0.0075 -0.04887,-0.06372 -0.08257,-0.137841 -0.120373,-0.208694 -0.355377,-0.666054 0.01804,-0.02717 -0.424863,-0.757658 -0.117293,-0.143707 -0.216481,-0.304327 -0.351878,-0.431122 -0.333338,-0.31216 -0.669336,-0.517935 -1.14729,-0.518791 -0.481474,-8.62e-4 -0.704259,0.180748 -1.064611,0.429957 -0.159653,0.110411 -0.313884,0.228464 -0.470825,0.342696 -0.413653,0.314416 -0.844227,0.666129 -1.292894,0.929789 -0.401479,0.23593 -0.838441,0.395579 -1.295383,0.4836 -0.166595,0.02079 -0.332252,0.05146 -0.499784,0.06238 -0.269528,0.01756 -0.5284,0.0065 -0.792468,-0.04557 -0.07069,-0.01395 -0.136382,-0.048 -0.207025,-0.06219 -0.02434,-0.0049 -0.0576,0.02408 -0.07427,0.0057 -0.04928,-0.05442 -0.0659,-0.131221 -0.09885,-0.196831 -0.122904,-0.281428 -0.243036,-0.563713 -0.353368,-0.850375 -0.05445,-0.141475 -0.100932,-0.285979 -0.157181,-0.426748 -0.003,-0.0074 -0.0092,-0.01308 -0.01378,-0.01962 -0.110385,-0.88308 -1.359249,-0.726972 -1.248864,0.156108 z"
           inkscape:label="writing" />
        <rect
           style="fill:#333333;fill-opacity:1;stroke-width:2.20783;paint-order:markers fill stroke"
           id="rect17"
           width="3.0080748"
           height="3.0036325"
           x="21.998665"
           y="86.00029"
           inkscape:label="point" />
      </g>
      <g
         inkscape:groupmode="layer"
         id="g39"
         inkscape:label="item"
         transform="translate(-0.00582161,-14.995677)">
        <path
           style="opacity:1;fill:#333333;fill-opacity:1;stroke:none;stroke-width:1;stroke-dasharray:none;stroke-opacity:1;paint-order:stroke markers fill"
           id="path39"
           d="m 29.123533,86.564149 c 0.0179,0.07115 0.0324,0.143234 0.05368,0.213441 0.027,0.08904 0.159755,0.445923 0.186291,0.514981 0.118581,0.308607 0.247568,0.612491 0.37964,0.915491 0.04189,0.08477 0.0669,0.180247 0.125678,0.254318 0.11546,0.1455 0.240209,0.288613 0.391108,0.39692 0.50395,0.361707 1.188185,0.425078 1.78569,0.402751 0.222995,-0.0083 0.44384,-0.04681 0.66576,-0.07022 0.605207,-0.106698 1.186102,-0.307615 1.721148,-0.611008 0.527336,-0.299021 1.004966,-0.685289 1.486221,-1.050717 0.149962,-0.109043 0.297311,-0.221773 0.449887,-0.327128 0.126739,-0.08752 0.319109,-0.340082 0.503796,-0.202003 0.02817,0.02106 0.02928,0.06432 0.04888,0.09353 0.03391,0.0505 0.07546,0.09547 0.111095,0.144775 0.0561,0.07763 0.109354,0.157273 0.164031,0.235909 0.05327,0.09301 0.10924,0.184525 0.159814,0.279028 0.04816,0.08999 0.08832,0.184095 0.136254,0.274198 0.228869,0.430176 0.443444,0.71724 1.001786,0.741083 0.185668,0.0079 0.360511,-0.09041 0.540767,-0.135613 0.148357,-0.08584 0.299297,-0.167355 0.44507,-0.257509 0.139219,-0.0861 0.270978,-0.183832 0.409521,-0.271015 0.392535,-0.247017 0.809931,-0.485905 1.265329,-0.596536 0.12893,-0.03132 0.262935,-0.0358 0.394402,-0.05369 0.11632,0.01842 0.235819,0.02256 0.348959,0.05525 0.57171,0.165192 1.017726,0.605943 1.446756,0.99217 0.110819,0.09976 0.222946,0.198064 0.334419,0.297095 0.417058,0.266929 0.521009,0.383845 1.03604,0.487828 0.718792,0.145122 1.482702,0.009 2.176874,-0.184937 0.242119,-0.06763 0.476745,-0.159685 0.715118,-0.239528 0.527993,-0.192951 1.029884,-0.453323 1.564817,-0.628255 0.116993,-0.03826 0.646083,-0.186654 0.789316,-0.185187 0.08151,8.35e-4 0.154843,0.05102 0.232265,0.07653 0.374153,0.145423 0.710366,0.365474 1.039741,0.591075 0.196586,0.134649 0.451824,0.337801 0.672031,0.427031 0.2225,0.09016 0.458391,0.142888 0.687587,0.214331 0.660765,0.145247 1.332207,0.243141 2.007742,0.283241 0.174547,0.01036 0.349978,0.02803 0.524349,0.01503 0.538534,-0.04013 0.633827,-0.118477 1.133217,-0.309521 0.506325,-0.263424 0.992066,-0.567374 1.425167,-0.940906 0.354116,-0.305412 0.656148,-0.663301 0.976245,-1.002521 0.06826,-0.06548 0.136521,-0.130962 0.204782,-0.196443 0.0134,0.0066 0.05069,0.0092 0.04019,0.01977 -0.04062,0.04106 -0.113814,0.04326 -0.148353,0.08955 -0.01393,0.01868 0.02112,0.04245 0.03757,0.05895 0.04,0.04012 0.08834,0.07107 0.130171,0.109274 0.04827,0.0441 0.09329,0.09163 0.139931,0.137451 0.303379,0.355681 0.660233,0.658185 1.073445,0.879712 0.351953,0.188685 0.492254,0.219483 0.868644,0.348118 1.048625,0.261892 2.136725,0.229948 3.208975,0.224357 1.056854,-0.0119 2.111589,-0.08027 3.167837,-0.111132 0.737429,-0.01512 1.474428,-0.01806 2.209997,-0.07615 0.335682,-0.03981 0.672923,-0.03171 1.009711,-0.01686 0.889124,0.03839 0.94342,-1.219018 0.0543,-1.257411 v 0 c -0.387997,-0.01645 -0.776684,-0.0243 -1.163445,0.01962 -0.714697,0.05687 -1.430922,0.05656 -2.14741,0.07275 -1.046216,0.03072 -2.09094,0.09775 -3.137724,0.11061 -0.935161,0.0051 -1.883312,0.03668 -2.803472,-0.159532 -0.272713,-0.08823 -0.365655,-0.106595 -0.619536,-0.233401 -0.339795,-0.169717 -0.608881,-0.427917 -0.854651,-0.713332 -0.07934,-0.07382 -0.154487,-0.152432 -0.238028,-0.221468 -0.179087,-0.147992 -0.483813,-0.367671 -0.710405,-0.409704 -0.198487,-0.03682 -0.408626,-0.03813 -0.605587,0.0061 -0.265478,0.05965 -0.450643,0.279492 -0.63251,0.455555 -0.09287,0.0985 -0.186726,0.196074 -0.278599,0.295501 -0.229773,0.248667 -0.312162,0.362674 -0.565143,0.585284 -0.339154,0.298437 -0.722031,0.539125 -1.114788,0.759769 -0.207426,0.09215 -0.395256,0.198405 -0.626938,0.217832 -0.150266,0.0126 -0.301693,-0.0025 -0.452247,-0.01104 -0.594861,-0.03359 -1.186076,-0.118385 -1.769136,-0.239678 -0.13651,-0.03257 -0.277672,-0.04964 -0.409528,-0.0977 -0.176877,-0.06446 -0.462348,-0.289526 -0.600704,-0.383251 -0.478777,-0.32433 -0.968761,-0.627108 -1.532516,-0.783359 -0.224107,-0.02325 -0.447065,-0.07466 -0.672321,-0.06974 -0.162497,0.0035 -0.320399,0.05628 -0.478294,0.09485 -0.709536,0.173295 -1.366668,0.491414 -2.041344,0.76249 -0.198253,0.06841 -0.39343,0.146488 -0.594759,0.205233 -0.359831,0.104993 -0.754305,0.186523 -1.130176,0.21219 -0.212606,0.01452 -0.483117,0.0086 -0.689295,-0.07319 -0.09763,-0.03872 -0.182207,-0.104532 -0.273311,-0.156797 -0.395183,-0.350988 -0.792089,-0.746783 -1.23183,-1.038562 -0.402617,-0.267147 -0.782208,-0.467789 -1.262044,-0.562288 -0.220513,-0.04343 -0.448487,-0.03013 -0.67273,-0.04519 -0.203475,0.03619 -0.410676,0.05554 -0.610425,0.108565 -0.789157,0.209508 -1.469945,0.681668 -2.137172,1.131255 1.6e-5,0.152408 -0.01581,-0.0016 0.169988,0.211536 0.0076,0.0087 -0.02686,0.01673 -0.03391,0.0075 -0.04887,-0.06372 -0.08257,-0.137841 -0.120373,-0.208694 -0.355377,-0.666054 0.01804,-0.02717 -0.424863,-0.757658 -0.117293,-0.143707 -0.216481,-0.304327 -0.351878,-0.431122 -0.333338,-0.31216 -0.669336,-0.517935 -1.14729,-0.518791 -0.481474,-8.62e-4 -0.704259,0.180748 -1.064611,0.429957 -0.159653,0.110411 -0.313884,0.228464 -0.470825,0.342696 -0.413653,0.314416 -0.844227,0.666129 -1.292894,0.929789 -0.401479,0.23593 -0.838441,0.395579 -1.295383,0.4836 -0.166595,0.02079 -0.332252,0.05146 -0.499784,0.06238 -0.269528,0.01756 -0.5284,0.0065 -0.792468,-0.04557 -0.07069,-0.01395 -0.136382,-0.048 -0.207025,-0.06219 -0.02434,-0.0049 -0.0576,0.02408 -0.07427,0.0057 -0.04928,-0.05442 -0.0659,-0.131221 -0.09885,-0.196831 -0.122904,-0.281428 -0.243036,-0.563713 -0.353368,-0.850375 -0.05445,-0.141475 -0.100932,-0.285979 -0.157181,-0.426748 -0.003,-0.0074 -0.0092,-0.01308 -0.01378,-0.01962 -0.110385,-0.88308 -1.359249,-0.726972 -1.248864,0.156108 z"
           inkscape:label="writing" />
        <rect
           style="fill:#333333;fill-opacity:1;stroke-width:2.20783;paint-order:markers fill stroke"
           id="rect39"
           width="3.0080748"
           height="3.0036325"
           x="21.998665"
           y="86.00029"
           inkscape:label="point" />
      </g>
      <g
         inkscape:groupmode="layer"
         id="g40"
         inkscape:label="item"
         transform="translate(-0.00905766,-29.995693)">
        <path
           style="opacity:1;fill:#333333;fill-opacity:1;stroke:none;stroke-width:1;stroke-dasharray:none;stroke-opacity:1;paint-order:stroke markers fill"
           id="path40"
           d="m 29.123533,86.564149 c 0.0179,0.07115 0.0324,0.143234 0.05368,0.213441 0.027,0.08904 0.159755,0.445923 0.186291,0.514981 0.118581,0.308607 0.247568,0.612491 0.37964,0.915491 0.04189,0.08477 0.0669,0.180247 0.125678,0.254318 0.11546,0.1455 0.240209,0.288613 0.391108,0.39692 0.50395,0.361707 1.188185,0.425078 1.78569,0.402751 0.222995,-0.0083 0.44384,-0.04681 0.66576,-0.07022 0.605207,-0.106698 1.186102,-0.307615 1.721148,-0.611008 0.527336,-0.299021 1.004966,-0.685289 1.486221,-1.050717 0.149962,-0.109043 0.297311,-0.221773 0.449887,-0.327128 0.126739,-0.08752 0.319109,-0.340082 0.503796,-0.202003 0.02817,0.02106 0.02928,0.06432 0.04888,0.09353 0.03391,0.0505 0.07546,0.09547 0.111095,0.144775 0.0561,0.07763 0.109354,0.157273 0.164031,0.235909 0.05327,0.09301 0.10924,0.184525 0.159814,0.279028 0.04816,0.08999 0.08832,0.184095 0.136254,0.274198 0.228869,0.430176 0.443444,0.71724 1.001786,0.741083 0.185668,0.0079 0.360511,-0.09041 0.540767,-0.135613 0.148357,-0.08584 0.299297,-0.167355 0.44507,-0.257509 0.139219,-0.0861 0.270978,-0.183832 0.409521,-0.271015 0.392535,-0.247017 0.809931,-0.485905 1.265329,-0.596536 0.12893,-0.03132 0.262935,-0.0358 0.394402,-0.05369 0.11632,0.01842 0.235819,0.02256 0.348959,0.05525 0.57171,0.165192 1.017726,0.605943 1.446756,0.99217 0.110819,0.09976 0.222946,0.198064 0.334419,0.297095 0.417058,0.266929 0.521009,0.383845 1.03604,0.487828 0.718792,0.145122 1.482702,0.009 2.176874,-0.184937 0.242119,-0.06763 0.476745,-0.159685 0.715118,-0.239528 0.527993,-0.192951 1.029884,-0.453323 1.564817,-0.628255 0.116993,-0.03826 0.646083,-0.186654 0.789316,-0.185187 0.08151,8.35e-4 0.154843,0.05102 0.232265,0.07653 0.374153,0.145423 0.710366,0.365474 1.039741,0.591075 0.196586,0.134649 0.451824,0.337801 0.672031,0.427031 0.2225,0.09016 0.458391,0.142888 0.687587,0.214331 0.660765,0.145247 1.332207,0.243141 2.007742,0.283241 0.174547,0.01036 0.349978,0.02803 0.524349,0.01503 0.538534,-0.04013 0.633827,-0.118477 1.133217,-0.309521 0.506325,-0.263424 0.992066,-0.567374 1.425167,-0.940906 0.354116,-0.305412 0.656148,-0.663301 0.976245,-1.002521 0.06826,-0.06548 0.136521,-0.130962 0.204782,-0.196443 0.0134,0.0066 0.05069,0.0092 0.04019,0.01977 -0.04062,0.04106 -0.113814,0.04326 -0.148353,0.08955 -0.01393,0.01868 0.02112,0.04245 0.03757,0.05895 0.04,0.04012 0.08834,0.07107 0.130171,0.109274 0.04827,0.0441 0.09329,0.09163 0.139931,0.137451 0.303379,0.355681 0.660233,0.658185 1.073445,0.879712 0.351953,0.188685 0.492254,0.219483 0.868644,0.348118 1.048625,0.261892 2.136725,0.229948 3.208975,0.224357 1.056854,-0.0119 2.111589,-0.08027 3.167837,-0.111132 0.737429,-0.01512 1.474428,-0.01806 2.209997,-0.07615 0.335682,-0.03981 0.672923,-0.03171 1.009711,-0.01686 0.889124,0.03839 0.94342,-1.219018 0.0543,-1.257411 v 0 c -0.387997,-0.01645 -0.776684,-0.0243 -1.163445,0.01962 -0.714697,0.05687 -1.430922,0.05656 -2.14741,0.07275 -1.046216,0.03072 -2.09094,0.09775 -3.137724,0.11061 -0.935161,0.0051 -1.883312,0.03668 -2.803472,-0.159532 -0.272713,-0.08823 -0.365655,-0.106595 -0.619536,-0.233401 -0.339795,-0.169717 -0.608881,-0.427917 -0.854651,-0.713332 -0.07934,-0.07382 -0.154487,-0.152432 -0.238028,-0.221468 -0.179087,-0.147992 -0.483813,-0.367671 -0.710405,-0.409704 -0.198487,-0.03682 -0.408626,-0.03813 -0.605587,0.0061 -0.265478,0.05965 -0.450643,0.279492 -0.63251,0.455555 -0.09287,0.0985 -0.186726,0.196074 -0.278599,0.295501 -0.229773,0.248667 -0.312162,0.362674 -0.565143,0.585284 -0.339154,0.298437 -0.722031,0.539125 -1.114788,0.759769 -0.207426,0.09215 -0.395256,0.198405 -0.626938,0.217832 -0.150266,0.0126 -0.301693,-0.0025 -0.452247,-0.01104 -0.594861,-0.03359 -1.186076,-0.118385 -1.769136,-0.239678 -0.13651,-0.03257 -0.277672,-0.04964 -0.409528,-0.0977 -0.176877,-0.06446 -0.462348,-0.289526 -0.600704,-0.383251 -0.478777,-0.32433 -0.968761,-0.627108 -1.532516,-0.783359 -0.224107,-0.02325 -0.447065,-0.07466 -0.672321,-0.06974 -0.162497,0.0035 -0.320399,0.05628 -0.478294,0.09485 -0.709536,0.173295 -1.366668,0.491414 -2.041344,0.76249 -0.198253,0.06841 -0.39343,0.146488 -0.594759,0.205233 -0.359831,0.104993 -0.754305,0.186523 -1.130176,0.21219 -0.212606,0.01452 -0.483117,0.0086 -0.689295,-0.07319 -0.09763,-0.03872 -0.182207,-0.104532 -0.273311,-0.156797 -0.395183,-0.350988 -0.792089,-0.746783 -1.23183,-1.038562 -0.402617,-0.267147 -0.782208,-0.467789 -1.262044,-0.562288 -0.220513,-0.04343 -0.448487,-0.03013 -0.67273,-0.04519 -0.203475,0.03619 -0.410676,0.05554 -0.610425,0.108565 -0.789157,0.209508 -1.469945,0.681668 -2.137172,1.131255 1.6e-5,0.152408 -0.01581,-0.0016 0.169988,0.211536 0.0076,0.0087 -0.02686,0.01673 -0.03391,0.0075 -0.04887,-0.06372 -0.08257,-0.137841 -0.120373,-0.208694 -0.355377,-0.666054 0.01804,-0.02717 -0.424863,-0.757658 -0.117293,-0.143707 -0.216481,-0.304327 -0.351878,-0.431122 -0.333338,-0.31216 -0.669336,-0.517935 -1.14729,-0.518791 -0.481474,-8.62e-4 -0.704259,0.180748 -1.064611,0.429957 -0.159653,0.110411 -0.313884,0.228464 -0.470825,0.342696 -0.413653,0.314416 -0.844227,0.666129 -1.292894,0.929789 -0.401479,0.23593 -0.838441,0.395579 -1.295383,0.4836 -0.166595,0.02079 -0.332252,0.05146 -0.499784,0.06238 -0.269528,0.01756 -0.5284,0.0065 -0.792468,-0.04557 -0.07069,-0.01395 -0.136382,-0.048 -0.207025,-0.06219 -0.02434,-0.0049 -0.0576,0.02408 -0.07427,0.0057 -0.04928,-0.05442 -0.0659,-0.131221 -0.09885,-0.196831 -0.122904,-0.281428 -0.243036,-0.563713 -0.353368,-0.850375 -0.05445,-0.141475 -0.100932,-0.285979 -0.157181,-0.426748 -0.003,-0.0074 -0.0092,-0.01308 -0.01378,-0.01962 -0.110385,-0.88308 -1.359249,-0.726972 -1.248864,0.156108 z"
           inkscape:label="writing" />
        <rect
           style="fill:#333333;fill-opacity:1;stroke-width:2.20783;paint-order:markers fill stroke"
           id="rect40"
           width="3.0080748"
           height="3.0036325"
           x="21.998665"
           y="86.00029"
           inkscape:label="point" />
      </g>
      <g
         inkscape:groupmode="layer"
         id="g41"
         inkscape:label="item"
         transform="translate(-0.00880795,-44.991787)">
        <path
           style="opacity:1;fill:#333333;fill-opacity:1;stroke:none;stroke-width:1;stroke-dasharray:none;stroke-opacity:1;paint-order:stroke markers fill"
           id="path41"
           d="m 29.123533,86.564149 c 0.0179,0.07115 0.0324,0.143234 0.05368,0.213441 0.027,0.08904 0.159755,0.445923 0.186291,0.514981 0.118581,0.308607 0.247568,0.612491 0.37964,0.915491 0.04189,0.08477 0.0669,0.180247 0.125678,0.254318 0.11546,0.1455 0.240209,0.288613 0.391108,0.39692 0.50395,0.361707 1.188185,0.425078 1.78569,0.402751 0.222995,-0.0083 0.44384,-0.04681 0.66576,-0.07022 0.605207,-0.106698 1.186102,-0.307615 1.721148,-0.611008 0.527336,-0.299021 1.004966,-0.685289 1.486221,-1.050717 0.149962,-0.109043 0.297311,-0.221773 0.449887,-0.327128 0.126739,-0.08752 0.319109,-0.340082 0.503796,-0.202003 0.02817,0.02106 0.02928,0.06432 0.04888,0.09353 0.03391,0.0505 0.07546,0.09547 0.111095,0.144775 0.0561,0.07763 0.109354,0.157273 0.164031,0.235909 0.05327,0.09301 0.10924,0.184525 0.159814,0.279028 0.04816,0.08999 0.08832,0.184095 0.136254,0.274198 0.228869,0.430176 0.443444,0.71724 1.001786,0.741083 0.185668,0.0079 0.360511,-0.09041 0.540767,-0.135613 0.148357,-0.08584 0.299297,-0.167355 0.44507,-0.257509 0.139219,-0.0861 0.270978,-0.183832 0.409521,-0.271015 0.392535,-0.247017 0.809931,-0.485905 1.265329,-0.596536 0.12893,-0.03132 0.262935,-0.0358 0.394402,-0.05369 0.11632,0.01842 0.235819,0.02256 0.348959,0.05525 0.57171,0.165192 1.017726,0.605943 1.446756,0.99217 0.110819,0.09976 0.222946,0.198064 0.334419,0.297095 0.417058,0.266929 0.521009,0.383845 1.03604,0.487828 0.718792,0.145122 1.482702,0.009 2.176874,-0.184937 0.242119,-0.06763 0.476745,-0.159685 0.715118,-0.239528 0.527993,-0.192951 1.029884,-0.453323 1.564817,-0.628255 0.116993,-0.03826 0.646083,-0.186654 0.789316,-0.185187 0.08151,8.35e-4 0.154843,0.05102 0.232265,0.07653 0.374153,0.145423 0.710366,0.365474 1.039741,0.591075 0.196586,0.134649 0.451824,0.337801 0.672031,0.427031 0.2225,0.09016 0.458391,0.142888 0.687587,0.214331 0.660765,0.145247 1.332207,0.243141 2.007742,0.283241 0.174547,0.01036 0.349978,0.02803 0.524349,0.01503 0.538534,-0.04013 0.633827,-0.118477 1.133217,-0.309521 0.506325,-0.263424 0.992066,-0.567374 1.425167,-0.940906 0.354116,-0.305412 0.656148,-0.663301 0.976245,-1.002521 0.06826,-0.06548 0.136521,-0.130962 0.204782,-0.196443 0.0134,0.0066 0.05069,0.0092 0.04019,0.01977 -0.04062,0.04106 -0.113814,0.04326 -0.148353,0.08955 -0.01393,0.01868 0.02112,0.04245 0.03757,0.05895 0.04,0.04012 0.08834,0.07107 0.130171,0.109274 0.04827,0.0441 0.09329,0.09163 0.139931,0.137451 0.303379,0.355681 0.660233,0.658185 1.073445,0.879712 0.351953,0.188685 0.492254,0.219483 0.868644,0.348118 1.048625,0.261892 2.136725,0.229948 3.208975,0.224357 1.056854,-0.0119 2.111589,-0.08027 3.167837,-0.111132 0.737429,-0.01512 1.474428,-0.01806 2.209997,-0.07615 0.335682,-0.03981 0.672923,-0.03171 1.009711,-0.01686 0.889124,0.03839 0.94342,-1.219018 0.0543,-1.257411 v 0 c -0.387997,-0.01645 -0.776684,-0.0243 -1.163445,0.01962 -0.714697,0.05687 -1.430922,0.05656 -2.14741,0.07275 -1.046216,0.03072 -2.09094,0.09775 -3.137724,0.11061 -0.935161,0.0051 -1.883312,0.03668 -2.803472,-0.159532 -0.272713,-0.08823 -0.365655,-0.106595 -0.619536,-0.233401 -0.339795,-0.169717 -0.608881,-0.427917 -0.854651,-0.713332 -0.07934,-0.07382 -0.154487,-0.152432 -0.238028,-0.221468 -0.179087,-0.147992 -0.483813,-0.367671 -0.710405,-0.409704 -0.198487,-0.03682 -0.408626,-0.03813 -0.605587,0.0061 -0.265478,0.05965 -0.450643,0.279492 -0.63251,0.455555 -0.09287,0.0985 -0.186726,0.196074 -0.278599,0.295501 -0.229773,0.248667 -0.312162,0.362674 -0.565143,0.585284 -0.339154,0.298437 -0.722031,0.539125 -1.114788,0.759769 -0.207426,0.09215 -0.395256,0.198405 -0.626938,0.217832 -0.150266,0.0126 -0.301693,-0.0025 -0.452247,-0.01104 -0.594861,-0.03359 -1.186076,-0.118385 -1.769136,-0.239678 -0.13651,-0.03257 -0.277672,-0.04964 -0.409528,-0.0977 -0.176877,-0.06446 -0.462348,-0.289526 -0.600704,-0.383251 -0.478777,-0.32433 -0.968761,-0.627108 -1.532516,-0.783359 -0.224107,-0.02325 -0.447065,-0.07466 -0.672321,-0.06974 -0.162497,0.0035 -0.320399,0.05628 -0.478294,0.09485 -0.709536,0.173295 -1.366668,0.491414 -2.041344,0.76249 -0.198253,0.06841 -0.39343,0.146488 -0.594759,0.205233 -0.359831,0.104993 -0.754305,0.186523 -1.130176,0.21219 -0.212606,0.01452 -0.483117,0.0086 -0.689295,-0.07319 -0.09763,-0.03872 -0.182207,-0.104532 -0.273311,-0.156797 -0.395183,-0.350988 -0.792089,-0.746783 -1.23183,-1.038562 -0.402617,-0.267147 -0.782208,-0.467789 -1.262044,-0.562288 -0.220513,-0.04343 -0.448487,-0.03013 -0.67273,-0.04519 -0.203475,0.03619 -0.410676,0.05554 -0.610425,0.108565 -0.789157,0.209508 -1.469945,0.681668 -2.137172,1.131255 1.6e-5,0.152408 -0.01581,-0.0016 0.169988,0.211536 0.0076,0.0087 -0.02686,0.01673 -0.03391,0.0075 -0.04887,-0.06372 -0.08257,-0.137841 -0.120373,-0.208694 -0.355377,-0.666054 0.01804,-0.02717 -0.424863,-0.757658 -0.117293,-0.143707 -0.216481,-0.304327 -0.351878,-0.431122 -0.333338,-0.31216 -0.669336,-0.517935 -1.14729,-0.518791 -0.481474,-8.62e-4 -0.704259,0.180748 -1.064611,0.429957 -0.159653,0.110411 -0.313884,0.228464 -0.470825,0.342696 -0.413653,0.314416 -0.844227,0.666129 -1.292894,0.929789 -0.401479,0.23593 -0.838441,0.395579 -1.295383,0.4836 -0.166595,0.02079 -0.332252,0.05146 -0.499784,0.06238 -0.269528,0.01756 -0.5284,0.0065 -0.792468,-0.04557 -0.07069,-0.01395 -0.136382,-0.048 -0.207025,-0.06219 -0.02434,-0.0049 -0.0576,0.02408 -0.07427,0.0057 -0.04928,-0.05442 -0.0659,-0.131221 -0.09885,-0.196831 -0.122904,-0.281428 -0.243036,-0.563713 -0.353368,-0.850375 -0.05445,-0.141475 -0.100932,-0.285979 -0.157181,-0.426748 -0.003,-0.0074 -0.0092,-0.01308 -0.01378,-0.01962 -0.110385,-0.88308 -1.359249,-0.726972 -1.248864,0.156108 z"
           inkscape:label="writing" />
        <rect
           style="fill:#333333;fill-opacity:1;stroke-width:2.20783;paint-order:markers fill stroke"
           id="rect41"
           width="3.0080748"
           height="3.0036325"
           x="21.998665"
           y="86.00029"
           inkscape:label="point" />
      </g>
    </g>
  </g>
  <g
     inkscape:groupmode="layer"
     id="layer5"
     inkscape:label="fuel pistol">
    <path
       style="opacity:1;fill:#29324d;fill-opacity:1;stroke:none;stroke-width:1;stroke-dasharray:none;stroke-opacity:1;paint-order:stroke markers fill"
       d="M 105.0625,104.9375 V 30.052038 c 0,0 -2.32179,-15.013787 -26.004643,-15.013787 -23.682857,0 -4.911073,0.982137 0,0.982137 4.911073,0 24.396093,3.253071 24.396093,14.085092 0,10.83202 0,74.86327 0,74.86327 0,0 0.8273,1.15625 1.60855,-0.0312 z"
       id="path49" />
    <rect
       style="opacity:1;fill:#29324d;fill-opacity:1;stroke:none;stroke-width:1.35752;stroke-dasharray:none;stroke-opacity:1;paint-order:stroke markers fill"
       id="rect49"
       width="8.7121735"
       height="1.0188599"
       x="95.006897"
       y="88.992188"
       ry="0.34250486" />
    <rect
       style="opacity:1;fill:#29324d;fill-opacity:1;stroke:none;stroke-width:2.92472;stroke-dasharray:none;stroke-opacity:1;paint-order:stroke markers fill"
       id="rect50"
       width="1.0377731"
       height="20.847961"
       x="95.00721"
       y="69.009827"
       ry="0.28598908" />
    <rect
       style="opacity:1;fill:#29324d;fill-opacity:1;stroke:none;stroke-width:1.35752;stroke-dasharray:none;stroke-opacity:1;paint-order:stroke markers fill"
       id="rect51"
       width="8.7121735"
       height="1.0188599"
       x="95.014481"
       y="69.014732"
       ry="0.34250486" />
    <path
       style="opacity:1;fill:#29324d;fill-opacity:1;stroke:none;stroke-width:1;stroke-dasharray:none;stroke-opacity:1;paint-order:stroke markers fill"
       d="m 100.58594,69.650018 c 0,0 2.03293,13.656 1.70148,15.026019 -0.33146,1.370019 -1.5689,3.955378 -1.03857,1.723573 0.53033,-2.231806 0.50824,-2.585359 0.35356,-3.800699 -0.15468,-1.21534 -1.988742,-13.12567 -1.988742,-13.12567 z"
       id="path51" />
  </g>
</svg>
